<svg width="28" height="28" viewBox="0 0 28 28" fill="none" xmlns="http://www.w3.org/2000/svg">
<path d="M27.3333 14C27.3333 21.364 21.364 27.3334 14 27.3334C6.63599 27.3334 0.666656 21.364 0.666656 14C0.666656 6.63602 6.63599 0.666687 14 0.666687C21.364 0.666687 27.3333 6.63602 27.3333 14ZM24.6667 14C24.6667 11.171 23.5429 8.45794 21.5425 6.45755C19.5421 4.45716 16.829 3.33335 14 3.33335C11.171 3.33335 8.45791 4.45716 6.45752 6.45755C4.45713 8.45794 3.33332 11.171 3.33332 14C3.33332 16.829 4.45713 19.5421 6.45752 21.5425C8.45791 23.5429 11.171 24.6667 14 24.6667C16.829 24.6667 19.5421 23.5429 21.5425 21.5425C23.5429 19.5421 24.6667 16.829 24.6667 14ZM12.6667 22V12.6667H15.3333V22H12.6667ZM14 10.3334C13.7824 10.3355 13.5667 10.2936 13.3657 10.2102C13.1648 10.1268 12.9828 10.0036 12.8307 9.84802C12.67 9.69663 12.5428 9.51334 12.4572 9.30991C12.3715 9.10647 12.3293 8.88738 12.3333 8.66669C12.3333 8.20269 12.4973 7.80802 12.8293 7.48535C13.1587 7.16269 13.5493 7.00002 14 7.00002C14.4493 7.00002 14.84 7.16269 15.1693 7.48535C15.5 7.80802 15.6667 8.20269 15.6667 8.66669C15.6667 9.13069 15.5013 9.52535 15.1693 9.84802C15.0172 10.0036 14.8352 10.1268 14.6343 10.2102C14.4333 10.2936 14.2176 10.3355 14 10.3334Z" fill="white"/>
</svg>
